<svg class="bob" font-family="Inconsolas, Menlo, Consolas, monospace" font-size="22" height="96" width="912" xmlns="http://www.w3.org/2000/svg">
<defs>
<marker id="triangle" markerHeight="10" markerUnits="strokeWidth" markerWidth="10" orient="auto" refX="15" refY="10" viewBox="0 0 50 20">
<path d="M 0 0 L 30 10 L 0 20 z"/>
</marker>
</defs>
<style>

    line, path {
      stroke: black;
      stroke-width: 4;
      stroke-opacity: 1;
      fill-opacity: 1;
      stroke-linecap: round;
      stroke-linejoin: miter;
    }
    circle {
      stroke: black;
      stroke-width: 4;
      stroke-opacity: 1;
      fill-opacity: 1;
      stroke-linecap: round;
      stroke-linejoin: miter;
    }
    circle.solid {
      fill:black;
    }
    circle.open {
      fill:transparent;
    }
    tspan.head{
        fill: none;
        stroke: none;
    }
    
</style>
<path d=" M 48 16 A 8 8 0 0 0 40 24 L 40 32 M 48 16 L 64 16 M 48 16 L 64 16 L 80 16 M 64 16 L 80 16 L 96 16 M 80 16 L 96 16 L 112 16 M 96 16 L 112 16 L 128 16 M 112 16 L 128 16 L 144 16 M 128 16 L 144 16 L 160 16 M 144 16 L 160 16 L 176 16 M 160 16 L 176 16 M 184 24 A 8 8 0 0 0 176 16 M 184 24 L 184 32 M 296 16 L 304 16 M 296 16 L 296 32 M 304 16 L 320 16 M 304 16 L 320 16 M 400 16 L 416 16 M 400 16 L 416 16 L 432 16 M 416 16 L 432 16 L 448 16 M 432 16 L 448 16 L 464 16 M 448 16 L 464 16 L 480 16 M 464 16 L 480 16 L 496 16 M 480 16 L 496 16 L 512 16 M 496 16 L 512 16 L 528 16 M 512 16 L 528 16 L 544 16 M 528 16 L 544 16 L 560 16 M 544 16 L 560 16 L 576 16 M 560 16 L 576 16 L 592 16 M 576 16 L 592 16 M 600 16 L 592 16 M 600 16 L 600 32 M 712 16 L 720 16 M 712 16 L 712 32 M 728 16 L 720 16 M 728 16 L 736 16 M 728 16 L 728 32 M 736 16 L 752 16 M 736 16 L 752 16 L 768 16 M 752 16 L 768 16 L 784 16 M 768 16 L 784 16 L 800 16 M 784 16 L 800 16 L 816 16 M 800 16 L 816 16 L 832 16 M 816 16 L 832 16 L 848 16 M 832 16 L 848 16 L 864 16 M 848 16 L 864 16 L 880 16 M 864 16 L 880 16 M 888 16 L 880 16 M 888 16 L 896 16 M 888 16 L 888 32 M 904 16 L 896 16 M 904 16 L 904 32 M 40 32 L 40 64 M 40 32 L 40 64 M 184 32 L 184 64 M 184 32 L 184 64 M 208 48 L 184 48 M 224 48 L 240 48 M 224 48 L 240 48 M 296 32 L 296 64 M 296 32 L 296 64 M 600 32 L 600 64 M 600 32 L 600 64 M 624 48 L 600 48 M 640 48 L 656 48 M 640 48 L 656 48 M 712 32 L 712 64 M 712 32 L 712 64 M 728 32 L 728 64 M 728 32 L 728 64 M 888 32 L 888 64 M 888 32 L 888 64 M 904 32 L 904 64 M 904 32 L 904 64 M 40 72 L 40 64 M 40 72 A 8 8 0 0 0 48 80 L 64 80 M 48 80 L 64 80 L 80 80 M 64 80 L 80 80 L 96 80 M 80 80 L 96 80 L 112 80 M 96 80 L 112 80 L 128 80 M 112 80 L 128 80 L 144 80 M 128 80 L 144 80 L 160 80 M 144 80 L 160 80 L 176 80 M 160 80 L 176 80 M 184 72 L 184 64 M 176 80 A 8 8 0 0 0 184 72 M 296 80 L 296 64 M 296 80 L 304 80 L 320 80 M 304 80 L 320 80 L 336 80 M 320 80 L 336 80 L 352 80 M 336 80 L 352 80 L 368 80 M 352 80 L 368 80 L 384 80 M 368 80 L 384 80 L 400 80 M 384 80 L 400 80 L 416 80 M 400 80 L 416 80 L 432 80 M 416 80 L 432 80 L 448 80 M 432 80 L 448 80 L 464 80 M 448 80 L 464 80 L 480 80 M 464 80 L 480 80 L 496 80 M 480 80 L 496 80 L 512 80 M 496 80 L 512 80 L 528 80 M 512 80 L 528 80 L 544 80 M 528 80 L 544 80 L 560 80 M 544 80 L 560 80 L 576 80 M 560 80 L 576 80 L 592 80 M 576 80 L 592 80 M 600 80 L 600 64 M 600 80 L 592 80 M 712 80 L 712 64 M 712 80 L 720 80 M 728 80 L 728 64 M 728 80 L 720 80 M 728 80 L 736 80 L 752 80 M 736 80 L 752 80 L 768 80 M 752 80 L 768 80 L 784 80 M 768 80 L 784 80 L 800 80 M 784 80 L 800 80 L 816 80 M 800 80 L 816 80 L 832 80 M 816 80 L 832 80 L 848 80 M 832 80 L 848 80 L 864 80 M 848 80 L 864 80 L 880 80 M 864 80 L 880 80 M 888 80 L 888 64 M 888 80 L 880 80 M 888 80 L 896 80 M 904 80 L 904 64 M 904 80 L 896 80" fill="none"/>
<path d="" fill="none" stroke-dasharray="3 3"/>
<line marker-end="url(#triangle)" x1="256" x2="280" y1="48" y2="48"/>
<line marker-end="url(#triangle)" x1="256" x2="280" y1="48" y2="48"/>
<line marker-end="url(#triangle)" x1="272" x2="280" y1="48" y2="48"/>
<line marker-end="url(#triangle)" x1="672" x2="696" y1="48" y2="48"/>
<line marker-end="url(#triangle)" x1="672" x2="696" y1="48" y2="48"/>
<line marker-end="url(#triangle)" x1="688" x2="696" y1="48" y2="48"/>
<text x="322" y="24">
async
</text>
<text x="66" y="56">
number
</text>
<text x="322" y="56">
increase(a: number)
</text>
<text x="754" y="56">
Promise
</text>
</svg>
