<svg class="bob" font-family="Inconsolas, Menlo, Consolas, monospace" font-size="22" height="160" width="1152" xmlns="http://www.w3.org/2000/svg">
<defs>
<marker id="triangle" markerHeight="10" markerUnits="strokeWidth" markerWidth="10" orient="auto" refX="15" refY="10" viewBox="0 0 50 20">
<path d="M 0 0 L 30 10 L 0 20 z"/>
</marker>
</defs>
<style>

    line, path {
      stroke: black;
      stroke-width: 4;
      stroke-opacity: 1;
      fill-opacity: 1;
      stroke-linecap: round;
      stroke-linejoin: miter;
    }
    circle {
      stroke: black;
      stroke-width: 4;
      stroke-opacity: 1;
      fill-opacity: 1;
      stroke-linecap: round;
      stroke-linejoin: miter;
    }
    circle.solid {
      fill:black;
    }
    circle.open {
      fill:transparent;
    }
    tspan.head{
        fill: none;
        stroke: none;
    }
    
</style>
<path d=" M 856 16 L 864 16 M 856 16 L 856 32 M 872 16 L 864 16 M 872 16 L 880 16 M 872 16 L 872 32 M 880 16 L 896 16 M 880 16 L 896 16 L 912 16 M 896 16 L 912 16 L 928 16 M 912 16 L 928 16 L 944 16 M 928 16 L 944 16 L 960 16 M 944 16 L 960 16 L 976 16 M 960 16 L 976 16 L 992 16 M 976 16 L 992 16 L 1008 16 M 992 16 L 1008 16 L 1024 16 M 1008 16 L 1024 16 M 1032 16 L 1024 16 M 1032 16 L 1040 16 M 1032 16 L 1032 32 M 1048 16 L 1040 16 M 1048 16 L 1048 32 M 48 48 A 8 8 0 0 0 40 56 L 40 64 M 48 48 L 64 48 M 48 48 L 64 48 L 80 48 M 64 48 L 80 48 L 96 48 M 80 48 L 96 48 L 112 48 M 96 48 L 112 48 L 128 48 M 112 48 L 128 48 L 144 48 M 128 48 L 144 48 L 160 48 M 144 48 L 160 48 L 176 48 M 160 48 L 176 48 M 184 56 A 8 8 0 0 0 176 48 M 184 56 L 184 64 M 296 48 L 304 48 M 296 48 L 296 64 M 304 48 L 320 48 M 304 48 L 320 48 M 400 48 L 416 48 M 400 48 L 416 48 L 432 48 M 416 48 L 432 48 L 448 48 M 432 48 L 448 48 L 464 48 M 448 48 L 464 48 L 480 48 M 464 48 L 480 48 L 496 48 M 480 48 L 496 48 L 512 48 M 496 48 L 512 48 L 528 48 M 512 48 L 528 48 L 544 48 M 528 48 L 544 48 L 560 48 M 544 48 L 560 48 L 576 48 M 560 48 L 576 48 L 592 48 M 576 48 L 592 48 L 608 48 M 592 48 L 608 48 L 624 48 M 608 48 L 624 48 L 640 48 M 624 48 L 640 48 L 656 48 M 640 48 L 656 48 L 672 48 M 656 48 L 672 48 L 688 48 M 672 48 L 688 48 L 704 48 M 688 48 L 704 48 L 720 48 M 704 48 L 720 48 M 728 48 L 720 48 M 728 48 L 728 64 M 856 32 L 856 64 M 856 32 L 856 64 M 872 32 L 872 64 M 872 32 L 872 64 M 904 48 L 912 48 M 904 48 L 904 64 M 920 48 L 912 48 M 920 48 L 928 48 M 920 48 L 920 64 M 928 48 L 944 48 M 928 48 L 944 48 L 960 48 M 944 48 L 960 48 L 976 48 M 960 48 L 976 48 L 992 48 M 976 48 L 992 48 L 1008 48 M 992 48 L 1008 48 L 1024 48 M 1008 48 L 1024 48 M 1032 48 L 1032 32 M 1032 48 L 1024 48 M 1032 48 L 1040 48 M 1048 48 L 1048 32 M 1048 48 L 1040 48 M 1048 48 L 1056 48 L 1072 48 M 1056 48 L 1072 48 M 1080 48 L 1072 48 M 1080 48 L 1088 48 M 1080 48 L 1080 64 M 1096 48 L 1088 48 M 1096 48 L 1096 64 M 40 64 L 40 96 M 40 64 L 40 96 M 184 64 L 184 96 M 184 64 L 184 96 M 208 80 L 184 80 M 224 80 L 240 80 M 224 80 L 240 80 M 296 64 L 296 96 M 296 64 L 296 96 M 728 64 L 728 96 M 728 64 L 728 96 M 752 80 L 728 80 M 768 80 L 784 80 M 768 80 L 784 80 M 856 80 L 856 64 M 856 80 L 864 80 M 872 80 L 872 64 M 872 80 L 864 80 M 872 80 L 880 80 L 896 80 M 880 80 L 896 80 M 904 80 L 904 64 M 904 80 L 896 80 M 904 80 L 904 96 M 920 64 L 920 96 M 920 64 L 920 96 M 952 80 L 960 80 M 952 80 L 952 96 M 968 80 L 960 80 M 968 80 L 976 80 M 968 80 L 968 96 M 976 80 L 992 80 M 976 80 L 992 80 L 1008 80 M 992 80 L 1008 80 L 1024 80 M 1008 80 L 1024 80 L 1040 80 M 1024 80 L 1040 80 L 1056 80 M 1040 80 L 1056 80 L 1072 80 M 1056 80 L 1072 80 M 1080 80 L 1080 64 M 1080 80 L 1072 80 M 1080 80 L 1088 80 M 1096 80 L 1096 64 M 1096 80 L 1088 80 M 1096 80 L 1104 80 L 1120 80 M 1104 80 L 1120 80 M 1128 80 L 1120 80 M 1128 80 L 1136 80 M 1128 80 L 1128 96 M 1144 80 L 1136 80 M 1144 80 L 1144 96 M 40 104 L 40 96 M 40 104 A 8 8 0 0 0 48 112 L 64 112 M 48 112 L 64 112 L 80 112 M 64 112 L 80 112 L 96 112 M 80 112 L 96 112 L 112 112 M 96 112 L 112 112 L 128 112 M 112 112 L 128 112 L 144 112 M 128 112 L 144 112 L 160 112 M 144 112 L 160 112 L 176 112 M 160 112 L 176 112 M 184 104 L 184 96 M 176 112 A 8 8 0 0 0 184 104 M 296 112 L 296 96 M 296 112 L 304 112 L 320 112 M 304 112 L 320 112 L 336 112 M 320 112 L 336 112 L 352 112 M 336 112 L 352 112 L 368 112 M 352 112 L 368 112 L 384 112 M 368 112 L 384 112 L 400 112 M 384 112 L 400 112 L 416 112 M 400 112 L 416 112 L 432 112 M 416 112 L 432 112 L 448 112 M 432 112 L 448 112 L 464 112 M 448 112 L 464 112 L 480 112 M 464 112 L 480 112 L 496 112 M 480 112 L 496 112 L 512 112 M 496 112 L 512 112 L 528 112 M 512 112 L 528 112 L 544 112 M 528 112 L 544 112 L 560 112 M 544 112 L 560 112 L 576 112 M 560 112 L 576 112 L 592 112 M 576 112 L 592 112 L 608 112 M 592 112 L 608 112 L 624 112 M 608 112 L 624 112 L 640 112 M 624 112 L 640 112 L 656 112 M 640 112 L 656 112 L 672 112 M 656 112 L 672 112 L 688 112 M 672 112 L 688 112 L 704 112 M 688 112 L 704 112 L 720 112 M 704 112 L 720 112 M 728 112 L 728 96 M 728 112 L 720 112 M 904 112 L 904 96 M 904 112 L 912 112 M 920 112 L 920 96 M 920 112 L 912 112 M 920 112 L 928 112 L 944 112 M 928 112 L 944 112 M 952 112 L 952 96 M 952 112 L 944 112 M 952 112 L 952 128 M 968 96 L 968 128 M 968 96 L 968 128 M 1128 96 L 1128 128 M 1128 96 L 1128 128 M 1144 96 L 1144 128 M 1144 96 L 1144 128 M 952 144 L 952 128 M 952 144 L 960 144 M 968 144 L 968 128 M 968 144 L 960 144 M 968 144 L 976 144 L 992 144 M 976 144 L 992 144 L 1008 144 M 992 144 L 1008 144 L 1024 144 M 1008 144 L 1024 144 L 1040 144 M 1024 144 L 1040 144 L 1056 144 M 1040 144 L 1056 144 L 1072 144 M 1056 144 L 1072 144 L 1088 144 M 1072 144 L 1088 144 L 1104 144 M 1088 144 L 1104 144 L 1120 144 M 1104 144 L 1120 144 M 1128 144 L 1128 128 M 1128 144 L 1120 144 M 1128 144 L 1136 144 M 1144 144 L 1144 128 M 1144 144 L 1136 144" fill="none"/>
<path d="" fill="none" stroke-dasharray="3 3"/>
<line marker-end="url(#triangle)" x1="256" x2="280" y1="80" y2="80"/>
<line marker-end="url(#triangle)" x1="256" x2="280" y1="80" y2="80"/>
<line marker-end="url(#triangle)" x1="272" x2="280" y1="80" y2="80"/>
<line marker-end="url(#triangle)" x1="800" x2="824" y1="80" y2="80"/>
<line marker-end="url(#triangle)" x1="800" x2="824" y1="80" y2="80"/>
<line marker-end="url(#triangle)" x1="816" x2="824" y1="80" y2="80"/>
<text x="322" y="56">
async
</text>
<text x="66" y="88">
string
</text>
<text x="322" y="88">
map ( string -> [article] )
</text>
<text x="994" y="120">
Promise
</text>
</svg>
