<svg class="bob" font-family="Inconsolas, Menlo, Consolas, monospace" font-size="22" height="256" width="1264" xmlns="http://www.w3.org/2000/svg">
<defs>
<marker id="triangle" markerHeight="10" markerUnits="strokeWidth" markerWidth="10" orient="auto" refX="15" refY="10" viewBox="0 0 50 20">
<path d="M 0 0 L 30 10 L 0 20 z"/>
</marker>
</defs>
<style>

    line, path {
      stroke: black;
      stroke-width: 4;
      stroke-opacity: 1;
      fill-opacity: 1;
      stroke-linecap: round;
      stroke-linejoin: miter;
    }
    circle {
      stroke: black;
      stroke-width: 4;
      stroke-opacity: 1;
      fill-opacity: 1;
      stroke-linecap: round;
      stroke-linejoin: miter;
    }
    circle.solid {
      fill:black;
    }
    circle.open {
      fill:transparent;
    }
    tspan.head{
        fill: none;
        stroke: none;
    }
    
</style>
<path d=" M 776 16 L 784 16 M 776 16 L 776 32 M 792 16 L 784 16 M 792 16 L 800 16 M 792 16 L 792 32 M 800 16 L 816 16 M 800 16 L 816 16 L 832 16 M 816 16 L 832 16 L 848 16 M 832 16 L 848 16 L 864 16 M 848 16 L 864 16 L 880 16 M 864 16 L 880 16 L 896 16 M 880 16 L 896 16 L 912 16 M 896 16 L 912 16 L 928 16 M 912 16 L 928 16 L 944 16 M 928 16 L 944 16 L 960 16 M 944 16 L 960 16 L 976 16 M 960 16 L 976 16 L 992 16 M 976 16 L 992 16 L 1008 16 M 992 16 L 1008 16 L 1024 16 M 1008 16 L 1024 16 L 1040 16 M 1024 16 L 1040 16 L 1056 16 M 1040 16 L 1056 16 L 1072 16 M 1056 16 L 1072 16 L 1088 16 M 1072 16 L 1088 16 L 1104 16 M 1088 16 L 1104 16 L 1120 16 M 1104 16 L 1120 16 L 1136 16 M 1120 16 L 1136 16 L 1152 16 M 1136 16 L 1152 16 L 1168 16 M 1152 16 L 1168 16 M 1176 16 L 1168 16 M 1176 16 L 1184 16 M 1176 16 L 1176 32 M 1192 16 L 1184 16 M 1192 16 L 1192 32 M 776 32 L 776 64 M 776 32 L 776 64 M 792 32 L 792 64 M 792 32 L 792 64 M 840 48 L 848 48 M 840 48 L 840 64 M 856 48 L 848 48 M 856 48 L 864 48 M 856 48 L 856 64 M 864 48 L 880 48 M 864 48 L 880 48 L 896 48 M 880 48 L 896 48 L 912 48 M 896 48 L 912 48 L 928 48 M 912 48 L 928 48 L 944 48 M 928 48 L 944 48 L 960 48 M 944 48 L 960 48 L 976 48 M 960 48 L 976 48 L 992 48 M 976 48 L 992 48 L 1008 48 M 992 48 L 1008 48 L 1024 48 M 1008 48 L 1024 48 L 1040 48 M 1024 48 L 1040 48 L 1056 48 M 1040 48 L 1056 48 L 1072 48 M 1056 48 L 1072 48 L 1088 48 M 1072 48 L 1088 48 L 1104 48 M 1088 48 L 1104 48 L 1120 48 M 1104 48 L 1120 48 L 1136 48 M 1120 48 L 1136 48 L 1152 48 M 1136 48 L 1152 48 L 1168 48 M 1152 48 L 1168 48 M 1176 48 L 1176 32 M 1176 48 L 1168 48 M 1176 48 L 1184 48 M 1192 48 L 1192 32 M 1192 48 L 1184 48 M 1192 48 L 1200 48 L 1216 48 M 1200 48 L 1216 48 L 1232 48 M 1216 48 L 1232 48 M 1240 48 L 1232 48 M 1240 48 L 1248 48 M 1240 48 L 1240 64 M 1256 48 L 1248 48 M 1256 48 L 1256 64 M 16 80 A 8 8 0 0 0 8 88 L 8 96 M 16 80 L 32 80 M 16 80 L 32 80 L 48 80 M 32 80 L 48 80 L 64 80 M 48 80 L 64 80 L 80 80 M 64 80 L 80 80 L 96 80 M 80 80 L 96 80 L 112 80 M 96 80 L 112 80 L 128 80 M 112 80 L 128 80 L 144 80 M 128 80 L 144 80 M 152 88 A 8 8 0 0 0 144 80 M 152 88 L 152 96 M 776 64 L 776 96 M 776 64 L 776 96 M 792 64 L 792 96 M 792 64 L 792 96 M 840 64 L 840 96 M 840 64 L 840 96 M 856 64 L 856 96 M 856 64 L 856 96 M 904 80 L 912 80 M 904 80 L 904 96 M 920 80 L 912 80 M 920 80 L 928 80 M 920 80 L 920 96 M 928 80 L 944 80 M 928 80 L 944 80 L 960 80 M 944 80 L 960 80 L 976 80 M 960 80 L 976 80 L 992 80 M 976 80 L 992 80 L 1008 80 M 992 80 L 1008 80 L 1024 80 M 1008 80 L 1024 80 L 1040 80 M 1024 80 L 1040 80 L 1056 80 M 1040 80 L 1056 80 L 1072 80 M 1056 80 L 1072 80 M 1080 80 L 1072 80 M 1080 80 L 1088 80 M 1080 80 L 1080 96 M 1096 80 L 1088 80 M 1096 80 L 1096 96 M 1240 64 L 1240 96 M 1240 64 L 1240 96 M 1256 64 L 1256 96 M 1256 64 L 1256 96 M 8 96 L 8 128 M 8 96 L 8 128 M 48 112 A 8 8 0 0 0 40 120 L 40 128 M 48 112 L 64 112 M 48 112 L 64 112 L 80 112 M 64 112 L 80 112 L 96 112 M 80 112 L 96 112 L 112 112 M 96 112 L 112 112 L 128 112 M 112 112 L 128 112 L 144 112 M 128 112 L 144 112 M 152 112 L 152 96 M 152 112 L 144 112 M 152 112 L 160 112 L 176 112 M 160 112 L 176 112 M 184 120 A 8 8 0 0 0 176 112 M 184 120 L 184 128 M 296 112 L 304 112 M 296 112 L 296 128 M 304 112 L 320 112 M 304 112 L 320 112 M 400 112 L 416 112 M 400 112 L 416 112 L 432 112 M 416 112 L 432 112 L 448 112 M 432 112 L 448 112 L 464 112 M 448 112 L 464 112 L 480 112 M 464 112 L 480 112 L 496 112 M 480 112 L 496 112 L 512 112 M 496 112 L 512 112 L 528 112 M 512 112 L 528 112 L 544 112 M 528 112 L 544 112 L 560 112 M 544 112 L 560 112 L 576 112 M 560 112 L 576 112 L 592 112 M 576 112 L 592 112 L 608 112 M 592 112 L 608 112 L 624 112 M 608 112 L 624 112 L 640 112 M 624 112 L 640 112 L 656 112 M 640 112 L 656 112 M 664 112 L 656 112 M 664 112 L 664 128 M 776 96 L 776 128 M 776 96 L 776 128 M 792 96 L 792 128 M 792 96 L 792 128 M 840 96 L 840 128 M 840 96 L 840 128 M 856 96 L 856 128 M 856 96 L 856 128 M 904 96 L 904 128 M 904 96 L 904 128 M 920 96 L 920 128 M 920 96 L 920 128 M 952 112 L 960 112 M 952 112 L 952 128 M 968 112 L 960 112 M 968 112 L 976 112 M 968 112 L 968 128 M 976 112 L 992 112 M 976 112 L 992 112 L 1008 112 M 992 112 L 1008 112 L 1024 112 M 1008 112 L 1024 112 L 1040 112 M 1024 112 L 1040 112 L 1056 112 M 1040 112 L 1056 112 L 1072 112 M 1056 112 L 1072 112 M 1080 112 L 1080 96 M 1080 112 L 1072 112 M 1080 112 L 1088 112 M 1096 112 L 1096 96 M 1096 112 L 1088 112 M 1096 112 L 1104 112 L 1120 112 M 1104 112 L 1120 112 M 1128 112 L 1120 112 M 1128 112 L 1136 112 M 1128 112 L 1128 128 M 1144 112 L 1136 112 M 1144 112 L 1144 128 M 1240 96 L 1240 128 M 1240 96 L 1240 128 M 1256 96 L 1256 128 M 1256 96 L 1256 128 M 8 136 L 8 128 M 8 136 A 8 8 0 0 0 16 144 L 32 144 M 16 144 L 32 144 M 40 144 L 40 128 M 40 144 L 32 144 M 40 144 L 40 160 M 184 128 L 184 160 M 184 128 L 184 160 M 208 144 L 184 144 M 224 144 L 240 144 M 224 144 L 240 144 M 296 128 L 296 160 M 296 128 L 296 160 M 664 128 L 664 160 M 664 128 L 664 160 M 688 144 L 664 144 M 704 144 L 720 144 M 704 144 L 720 144 M 776 128 L 776 160 M 776 128 L 776 160 M 792 128 L 792 160 M 792 128 L 792 160 M 840 128 L 840 160 M 840 128 L 840 160 M 856 128 L 856 160 M 856 128 L 856 160 M 904 144 L 904 128 M 904 144 L 912 144 M 920 144 L 920 128 M 920 144 L 912 144 M 920 144 L 928 144 L 944 144 M 928 144 L 944 144 M 952 144 L 952 128 M 952 144 L 944 144 M 952 144 L 952 160 M 968 128 L 968 160 M 968 128 L 968 160 M 1000 144 L 1008 144 M 1000 144 L 1000 160 M 1016 144 L 1008 144 M 1016 144 L 1024 144 M 1016 144 L 1016 160 M 1024 144 L 1040 144 M 1024 144 L 1040 144 L 1056 144 M 1040 144 L 1056 144 L 1072 144 M 1056 144 L 1072 144 L 1088 144 M 1072 144 L 1088 144 L 1104 144 M 1088 144 L 1104 144 L 1120 144 M 1104 144 L 1120 144 M 1128 144 L 1128 128 M 1128 144 L 1120 144 M 1128 144 L 1136 144 M 1144 144 L 1144 128 M 1144 144 L 1136 144 M 1144 144 L 1152 144 L 1168 144 M 1152 144 L 1168 144 M 1176 144 L 1168 144 M 1176 144 L 1184 144 M 1176 144 L 1176 160 M 1192 144 L 1184 144 M 1192 144 L 1192 160 M 1240 128 L 1240 160 M 1240 128 L 1240 160 M 1256 128 L 1256 160 M 1256 128 L 1256 160 M 40 168 L 40 160 M 40 168 A 8 8 0 0 0 48 176 L 64 176 M 48 176 L 64 176 L 80 176 M 64 176 L 80 176 L 96 176 M 80 176 L 96 176 L 112 176 M 96 176 L 112 176 L 128 176 M 112 176 L 128 176 L 144 176 M 128 176 L 144 176 L 160 176 M 144 176 L 160 176 L 176 176 M 160 176 L 176 176 M 184 168 L 184 160 M 176 176 A 8 8 0 0 0 184 168 M 296 176 L 296 160 M 296 176 L 304 176 L 320 176 M 304 176 L 320 176 L 336 176 M 320 176 L 336 176 L 352 176 M 336 176 L 352 176 L 368 176 M 352 176 L 368 176 L 384 176 M 368 176 L 384 176 L 400 176 M 384 176 L 400 176 L 416 176 M 400 176 L 416 176 L 432 176 M 416 176 L 432 176 L 448 176 M 432 176 L 448 176 L 464 176 M 448 176 L 464 176 L 480 176 M 464 176 L 480 176 L 496 176 M 480 176 L 496 176 L 512 176 M 496 176 L 512 176 L 528 176 M 512 176 L 528 176 L 544 176 M 528 176 L 544 176 L 560 176 M 544 176 L 560 176 L 576 176 M 560 176 L 576 176 L 592 176 M 576 176 L 592 176 L 608 176 M 592 176 L 608 176 L 624 176 M 608 176 L 624 176 L 640 176 M 624 176 L 640 176 L 656 176 M 640 176 L 656 176 M 664 176 L 664 160 M 664 176 L 656 176 M 776 160 L 776 192 M 776 160 L 776 192 M 792 160 L 792 192 M 792 160 L 792 192 M 840 160 L 840 192 M 840 160 L 840 192 M 856 160 L 856 192 M 856 160 L 856 192 M 952 176 L 952 160 M 952 176 L 960 176 M 968 176 L 968 160 M 968 176 L 960 176 M 968 176 L 976 176 L 992 176 M 976 176 L 992 176 M 1000 176 L 1000 160 M 1000 176 L 992 176 M 1000 176 L 1000 192 M 1016 160 L 1016 192 M 1016 160 L 1016 192 M 1176 160 L 1176 192 M 1176 160 L 1176 192 M 1192 160 L 1192 192 M 1192 160 L 1192 192 M 1240 160 L 1240 192 M 1240 160 L 1240 192 M 1256 160 L 1256 192 M 1256 160 L 1256 192 M 776 208 L 776 192 M 776 208 L 784 208 M 792 208 L 792 192 M 792 208 L 784 208 M 792 208 L 800 208 L 840 208 M 800 208 L 840 208 M 816 208 L 840 208 M 840 192 L 840 224 M 840 192 L 840 224 M 856 192 L 856 224 M 856 192 L 856 224 M 1000 208 L 1000 192 M 1000 208 L 1008 208 M 1016 208 L 1016 192 M 1016 208 L 1008 208 M 1016 208 L 1024 208 L 1040 208 M 1024 208 L 1040 208 L 1056 208 M 1040 208 L 1056 208 L 1072 208 M 1056 208 L 1072 208 L 1088 208 M 1072 208 L 1088 208 L 1104 208 M 1088 208 L 1104 208 L 1120 208 M 1104 208 L 1120 208 L 1136 208 M 1120 208 L 1136 208 L 1152 208 M 1136 208 L 1152 208 L 1168 208 M 1152 208 L 1168 208 M 1176 208 L 1176 192 M 1176 208 L 1168 208 M 1176 208 L 1184 208 M 1192 208 L 1192 192 M 1192 208 L 1184 208 M 1240 192 L 1240 224 M 1240 192 L 1240 224 M 1256 192 L 1256 224 M 1256 192 L 1256 224 M 840 240 L 840 224 M 840 240 L 848 240 M 856 240 L 856 224 M 856 240 L 848 240 M 856 240 L 864 240 L 880 240 M 864 240 L 880 240 L 896 240 M 880 240 L 896 240 L 912 240 M 896 240 L 912 240 L 928 240 M 912 240 L 928 240 L 944 240 M 928 240 L 944 240 L 960 240 M 944 240 L 960 240 L 976 240 M 960 240 L 976 240 L 992 240 M 976 240 L 992 240 L 1008 240 M 992 240 L 1008 240 L 1024 240 M 1008 240 L 1024 240 L 1040 240 M 1024 240 L 1040 240 L 1056 240 M 1040 240 L 1056 240 L 1072 240 M 1056 240 L 1072 240 L 1088 240 M 1072 240 L 1088 240 L 1104 240 M 1088 240 L 1104 240 L 1120 240 M 1104 240 L 1120 240 L 1136 240 M 1120 240 L 1136 240 L 1152 240 M 1136 240 L 1152 240 L 1168 240 M 1152 240 L 1168 240 L 1184 240 M 1168 240 L 1184 240 L 1200 240 M 1184 240 L 1200 240 L 1216 240 M 1200 240 L 1216 240 L 1232 240 M 1216 240 L 1232 240 M 1240 240 L 1240 224 M 1240 240 L 1232 240 M 1240 240 L 1248 240 M 1256 240 L 1256 224 M 1256 240 L 1248 240" fill="none"/>
<path d="" fill="none" stroke-dasharray="3 3"/>
<line marker-end="url(#triangle)" x1="256" x2="280" y1="144" y2="144"/>
<line marker-end="url(#triangle)" x1="256" x2="280" y1="144" y2="144"/>
<line marker-end="url(#triangle)" x1="272" x2="280" y1="144" y2="144"/>
<line marker-end="url(#triangle)" x1="736" x2="760" y1="144" y2="144"/>
<line marker-end="url(#triangle)" x1="736" x2="760" y1="144" y2="144"/>
<line marker-end="url(#triangle)" x1="752" x2="760" y1="144" y2="144"/>
<text x="322" y="120">
async
</text>
<text x="82" y="152">
urls
</text>
<text x="322" y="152">
getArticles( [string] )
</text>
<text x="1042" y="184">
Promise
</text>
</svg>
