<svg class="bob" font-family="Inconsolas, Menlo, Consolas, monospace" font-size="22" height="288" width="1104" xmlns="http://www.w3.org/2000/svg">
<defs>
<marker id="triangle" markerHeight="10" markerUnits="strokeWidth" markerWidth="10" orient="auto" refX="15" refY="10" viewBox="0 0 50 20">
<path d="M 0 0 L 30 10 L 0 20 z"/>
</marker>
</defs>
<style>

    line, path {
      stroke: black;
      stroke-width: 4;
      stroke-opacity: 1;
      fill-opacity: 1;
      stroke-linecap: round;
      stroke-linejoin: miter;
    }
    circle {
      stroke: black;
      stroke-width: 4;
      stroke-opacity: 1;
      fill-opacity: 1;
      stroke-linecap: round;
      stroke-linejoin: miter;
    }
    circle.solid {
      fill:black;
    }
    circle.open {
      fill:transparent;
    }
    tspan.head{
        fill: none;
        stroke: none;
    }
    
</style>
<path d=" M 784 48 A 8 8 0 0 0 776 56 L 776 64 M 784 48 L 800 48 M 784 48 L 800 48 L 816 48 M 800 48 L 816 48 L 832 48 M 816 48 L 832 48 L 848 48 M 832 48 L 848 48 L 864 48 M 848 48 L 864 48 L 880 48 M 864 48 L 880 48 L 896 48 M 880 48 L 896 48 L 912 48 M 896 48 L 912 48 L 928 48 M 912 48 L 928 48 L 944 48 M 928 48 L 944 48 L 960 48 M 944 48 L 960 48 L 976 48 M 960 48 L 976 48 L 992 48 M 976 48 L 992 48 L 1008 48 M 992 48 L 1008 48 L 1024 48 M 1008 48 L 1024 48 L 1040 48 M 1024 48 L 1040 48 M 1048 56 A 8 8 0 0 0 1040 48 M 1048 56 L 1048 64 M 64 80 A 8 8 0 0 0 56 88 L 56 96 M 64 80 L 80 80 M 64 80 L 80 80 L 96 80 M 80 80 L 96 80 L 112 80 M 96 80 L 112 80 L 128 80 M 112 80 L 128 80 L 144 80 M 128 80 L 144 80 M 152 88 A 8 8 0 0 0 144 80 M 152 88 L 152 96 M 776 64 L 776 96 M 776 64 L 776 96 M 816 80 A 8 8 0 0 0 808 88 L 808 96 M 816 80 L 832 80 M 816 80 L 832 80 L 848 80 M 832 80 L 848 80 L 864 80 M 848 80 L 864 80 L 880 80 M 864 80 L 880 80 L 896 80 M 880 80 L 896 80 L 912 80 M 896 80 L 912 80 L 928 80 M 912 80 L 928 80 L 944 80 M 928 80 L 944 80 L 960 80 M 944 80 L 960 80 L 976 80 M 960 80 L 976 80 L 992 80 M 976 80 L 992 80 L 1008 80 M 992 80 L 1008 80 L 1024 80 M 1008 80 L 1024 80 L 1040 80 M 1024 80 L 1040 80 M 1048 80 L 1048 64 M 1048 80 L 1040 80 M 1048 80 L 1056 80 L 1072 80 M 1056 80 L 1072 80 L 1088 80 M 1072 80 L 1088 80 M 1096 88 A 8 8 0 0 0 1088 80 M 1096 88 L 1096 96 M 56 96 L 56 128 M 56 96 L 56 128 M 96 112 A 8 8 0 0 0 88 120 L 88 128 M 96 112 L 112 112 M 96 112 L 112 112 L 128 112 M 112 112 L 128 112 L 144 112 M 128 112 L 144 112 M 152 112 L 152 96 M 152 112 L 144 112 M 152 112 L 160 112 L 176 112 M 160 112 L 176 112 L 192 112 M 176 112 L 192 112 M 200 120 A 8 8 0 0 0 192 112 M 200 120 L 200 128 M 776 96 L 776 128 M 776 96 L 776 128 M 808 96 L 808 128 M 808 96 L 808 128 M 848 112 A 8 8 0 0 0 840 120 L 840 128 M 848 112 L 864 112 M 848 112 L 864 112 L 880 112 M 864 112 L 880 112 L 896 112 M 880 112 L 896 112 L 912 112 M 896 112 L 912 112 L 928 112 M 912 112 L 928 112 L 944 112 M 928 112 L 944 112 L 960 112 M 944 112 L 960 112 L 976 112 M 960 112 L 976 112 M 984 120 A 8 8 0 0 0 976 112 M 984 120 L 984 128 M 1096 96 L 1096 128 M 1096 96 L 1096 128 M 56 128 L 56 160 M 56 128 L 56 160 M 88 128 L 88 160 M 88 128 L 88 160 M 200 128 L 200 160 M 200 128 L 200 160 M 312 144 L 320 144 M 312 144 L 312 160 M 320 144 L 336 144 M 320 144 L 336 144 L 352 144 M 336 144 L 352 144 L 368 144 M 352 144 L 368 144 L 384 144 M 368 144 L 384 144 L 400 144 M 384 144 L 400 144 L 416 144 M 400 144 L 416 144 L 432 144 M 416 144 L 432 144 L 448 144 M 432 144 L 448 144 L 464 144 M 448 144 L 464 144 L 480 144 M 464 144 L 480 144 L 496 144 M 480 144 L 496 144 L 512 144 M 496 144 L 512 144 L 528 144 M 512 144 L 528 144 L 544 144 M 528 144 L 544 144 L 560 144 M 544 144 L 560 144 L 576 144 M 560 144 L 576 144 L 592 144 M 576 144 L 592 144 L 608 144 M 592 144 L 608 144 L 624 144 M 608 144 L 624 144 L 640 144 M 624 144 L 640 144 L 656 144 M 640 144 L 656 144 M 664 144 L 656 144 M 664 144 L 664 160 M 776 128 L 776 160 M 776 128 L 776 160 M 808 128 L 808 160 M 808 128 L 808 160 M 840 128 L 840 160 M 840 128 L 840 160 M 880 144 A 8 8 0 0 0 872 152 L 872 160 M 880 144 L 896 144 M 880 144 L 896 144 L 912 144 M 896 144 L 912 144 L 928 144 M 912 144 L 928 144 L 944 144 M 928 144 L 944 144 L 960 144 M 944 144 L 960 144 L 976 144 M 960 144 L 976 144 M 984 144 L 984 128 M 984 144 L 976 144 M 984 144 L 992 144 L 1008 144 M 992 144 L 1008 144 L 1024 144 M 1008 144 L 1024 144 M 1032 152 A 8 8 0 0 0 1024 144 M 1032 152 L 1032 160 M 1096 128 L 1096 160 M 1096 128 L 1096 160 M 56 160 L 56 192 M 56 160 L 56 192 M 88 160 L 88 192 M 88 160 L 88 192 M 200 160 L 200 192 M 200 160 L 200 192 M 224 176 L 200 176 M 240 176 L 256 176 M 240 176 L 256 176 M 312 160 L 312 192 M 312 160 L 312 192 M 664 160 L 664 192 M 664 160 L 664 192 M 688 176 L 664 176 M 704 176 L 720 176 M 704 176 L 720 176 M 776 160 L 776 192 M 776 160 L 776 192 M 808 160 L 808 192 M 808 160 L 808 192 M 840 168 L 840 160 M 840 168 A 8 8 0 0 0 848 176 L 864 176 M 848 176 L 864 176 M 872 176 L 872 160 M 872 176 L 864 176 M 872 176 L 872 192 M 912 176 A 8 8 0 0 0 904 184 L 904 192 M 912 176 L 928 176 M 912 176 L 928 176 L 944 176 M 928 176 L 944 176 L 960 176 M 944 176 L 960 176 L 976 176 M 960 176 L 976 176 L 992 176 M 976 176 L 992 176 L 1008 176 M 992 176 L 1008 176 L 1024 176 M 1008 176 L 1024 176 M 1032 176 L 1032 160 M 1032 176 L 1024 176 M 1032 176 L 1040 176 L 1056 176 M 1040 176 L 1056 176 M 1064 184 A 8 8 0 0 0 1056 176 M 1064 184 L 1064 192 M 1096 160 L 1096 192 M 1096 160 L 1096 192 M 56 200 L 56 192 M 56 200 A 8 8 0 0 0 64 208 L 80 208 M 64 208 L 80 208 M 88 208 L 88 192 M 88 208 L 80 208 M 88 208 L 88 224 M 200 192 L 200 224 M 200 192 L 200 224 M 312 208 L 312 192 M 312 208 L 320 208 L 336 208 M 320 208 L 336 208 L 352 208 M 336 208 L 352 208 L 368 208 M 352 208 L 368 208 L 384 208 M 368 208 L 384 208 L 400 208 M 384 208 L 400 208 L 416 208 M 400 208 L 416 208 L 432 208 M 416 208 L 432 208 L 448 208 M 432 208 L 448 208 L 464 208 M 448 208 L 464 208 L 480 208 M 464 208 L 480 208 L 496 208 M 480 208 L 496 208 L 512 208 M 496 208 L 512 208 L 528 208 M 512 208 L 528 208 L 544 208 M 528 208 L 544 208 L 560 208 M 544 208 L 560 208 L 576 208 M 560 208 L 576 208 L 592 208 M 576 208 L 592 208 L 608 208 M 592 208 L 608 208 L 624 208 M 608 208 L 624 208 L 640 208 M 624 208 L 640 208 L 656 208 M 640 208 L 656 208 M 664 208 L 664 192 M 664 208 L 656 208 M 776 192 L 776 224 M 776 192 L 776 224 M 808 192 L 808 224 M 808 192 L 808 224 M 872 200 L 872 192 M 872 200 A 8 8 0 0 0 880 208 L 896 208 M 880 208 L 896 208 M 904 208 L 904 192 M 904 208 L 896 208 M 904 208 L 904 224 M 1064 192 L 1064 224 M 1064 192 L 1064 224 M 1096 192 L 1096 224 M 1096 192 L 1096 224 M 88 232 L 88 224 M 88 232 A 8 8 0 0 0 96 240 L 112 240 M 96 240 L 112 240 L 128 240 M 112 240 L 128 240 L 144 240 M 128 240 L 144 240 L 160 240 M 144 240 L 160 240 L 176 240 M 160 240 L 176 240 L 192 240 M 176 240 L 192 240 M 200 232 L 200 224 M 192 240 A 8 8 0 0 0 200 232 M 776 232 L 776 224 M 776 232 A 8 8 0 0 0 784 240 L 800 240 M 784 240 L 800 240 M 808 240 L 808 224 M 808 240 L 800 240 M 808 240 L 808 256 M 904 232 L 904 224 M 904 232 A 8 8 0 0 0 912 240 L 928 240 M 912 240 L 928 240 L 944 240 M 928 240 L 944 240 L 960 240 M 944 240 L 960 240 L 976 240 M 960 240 L 976 240 L 992 240 M 976 240 L 992 240 L 1008 240 M 992 240 L 1008 240 L 1024 240 M 1008 240 L 1024 240 L 1040 240 M 1024 240 L 1040 240 L 1056 240 M 1040 240 L 1056 240 M 1064 232 L 1064 224 M 1056 240 A 8 8 0 0 0 1064 232 M 1096 224 L 1096 256 M 1096 224 L 1096 256 M 808 264 L 808 256 M 808 264 A 8 8 0 0 0 816 272 L 832 272 M 816 272 L 832 272 L 848 272 M 832 272 L 848 272 L 864 272 M 848 272 L 864 272 L 880 272 M 864 272 L 880 272 L 896 272 M 880 272 L 896 272 L 912 272 M 896 272 L 912 272 L 928 272 M 912 272 L 928 272 L 944 272 M 928 272 L 944 272 L 960 272 M 944 272 L 960 272 L 976 272 M 960 272 L 976 272 L 992 272 M 976 272 L 992 272 L 1008 272 M 992 272 L 1008 272 L 1024 272 M 1008 272 L 1024 272 L 1040 272 M 1024 272 L 1040 272 L 1056 272 M 1040 272 L 1056 272 L 1072 272 M 1056 272 L 1072 272 L 1088 272 M 1072 272 L 1088 272 M 1096 264 L 1096 256 M 1088 272 A 8 8 0 0 0 1096 264" fill="none"/>
<path d="" fill="none" stroke-dasharray="3 3"/>
<line marker-end="url(#triangle)" x1="272" x2="296" y1="176" y2="176"/>
<line marker-end="url(#triangle)" x1="272" x2="296" y1="176" y2="176"/>
<line marker-end="url(#triangle)" x1="288" x2="296" y1="176" y2="176"/>
<line marker-end="url(#triangle)" x1="736" x2="760" y1="176" y2="176"/>
<line marker-end="url(#triangle)" x1="736" x2="760" y1="176" y2="176"/>
<line marker-end="url(#triangle)" x1="752" x2="760" y1="176" y2="176"/>
<text x="114" y="152">
rss
</text>
<text x="114" y="184">
feed
</text>
<text x="338" y="184">
getArticles([string])
</text>
<text x="114" y="216">
url
</text>
<text x="930" y="216">
article
</text>
</svg>
