<svg class="bob" font-family="Inconsolas, Menlo, Consolas, monospace" font-size="22" height="160" width="960" xmlns="http://www.w3.org/2000/svg">
<defs>
<marker id="triangle" markerHeight="10" markerUnits="strokeWidth" markerWidth="10" orient="auto" refX="15" refY="10" viewBox="0 0 50 20">
<path d="M 0 0 L 30 10 L 0 20 z"/>
</marker>
</defs>
<style>

    line, path {
      stroke: black;
      stroke-width: 4;
      stroke-opacity: 1;
      fill-opacity: 1;
      stroke-linecap: round;
      stroke-linejoin: miter;
    }
    circle {
      stroke: black;
      stroke-width: 4;
      stroke-opacity: 1;
      fill-opacity: 1;
      stroke-linecap: round;
      stroke-linejoin: miter;
    }
    circle.solid {
      fill:black;
    }
    circle.open {
      fill:transparent;
    }
    tspan.head{
        fill: none;
        stroke: none;
    }
    
</style>
<path d=" M 48 16 A 8 8 0 0 0 40 24 L 40 32 M 48 16 L 64 16 M 48 16 L 64 16 L 80 16 M 64 16 L 80 16 L 96 16 M 80 16 L 96 16 L 112 16 M 96 16 L 112 16 L 128 16 M 112 16 L 128 16 L 144 16 M 128 16 L 144 16 M 152 24 A 8 8 0 0 0 144 16 M 152 24 L 152 32 M 736 16 A 8 8 0 0 0 728 24 L 728 32 M 736 16 L 752 16 M 736 16 L 752 16 L 768 16 M 752 16 L 768 16 L 784 16 M 768 16 L 784 16 L 800 16 M 784 16 L 800 16 L 816 16 M 800 16 L 816 16 L 832 16 M 816 16 L 832 16 L 848 16 M 832 16 L 848 16 L 864 16 M 848 16 L 864 16 M 872 24 A 8 8 0 0 0 864 16 M 872 24 L 872 32 M 40 32 L 40 64 M 40 32 L 40 64 M 152 32 L 152 64 M 152 32 L 152 64 M 264 48 L 272 48 M 264 48 L 264 64 M 272 48 L 288 48 M 272 48 L 288 48 L 304 48 M 288 48 L 304 48 L 320 48 M 304 48 L 320 48 L 336 48 M 320 48 L 336 48 L 352 48 M 336 48 L 352 48 L 368 48 M 352 48 L 368 48 L 384 48 M 368 48 L 384 48 L 400 48 M 384 48 L 400 48 L 416 48 M 400 48 L 416 48 L 432 48 M 416 48 L 432 48 L 448 48 M 432 48 L 448 48 L 464 48 M 448 48 L 464 48 L 480 48 M 464 48 L 480 48 L 496 48 M 480 48 L 496 48 L 512 48 M 496 48 L 512 48 L 528 48 M 512 48 L 528 48 L 544 48 M 528 48 L 544 48 L 560 48 M 544 48 L 560 48 L 576 48 M 560 48 L 576 48 L 592 48 M 576 48 L 592 48 L 608 48 M 592 48 L 608 48 M 616 48 L 608 48 M 616 48 L 616 64 M 728 32 L 728 64 M 728 32 L 728 64 M 768 48 A 8 8 0 0 0 760 56 L 760 64 M 768 48 L 784 48 M 768 48 L 784 48 L 800 48 M 784 48 L 800 48 L 816 48 M 800 48 L 816 48 L 832 48 M 816 48 L 832 48 L 848 48 M 832 48 L 848 48 L 864 48 M 848 48 L 864 48 M 872 48 L 872 32 M 872 48 L 864 48 M 872 48 L 880 48 L 896 48 M 880 48 L 896 48 L 912 48 M 896 48 L 912 48 M 920 56 A 8 8 0 0 0 912 48 M 920 56 L 920 64 M 40 64 L 40 96 M 40 64 L 40 96 M 152 64 L 152 96 M 152 64 L 152 96 M 176 80 L 152 80 M 192 80 L 208 80 M 192 80 L 208 80 M 264 64 L 264 96 M 264 64 L 264 96 M 616 64 L 616 96 M 616 64 L 616 96 M 640 80 L 616 80 M 656 80 L 672 80 M 656 80 L 672 80 M 728 72 L 728 64 M 728 72 A 8 8 0 0 0 736 80 L 752 80 M 736 80 L 752 80 M 760 80 L 760 64 M 760 80 L 752 80 M 760 80 L 760 96 M 800 80 A 8 8 0 0 0 792 88 L 792 96 M 800 80 L 816 80 M 800 80 L 816 80 L 832 80 M 816 80 L 832 80 L 848 80 M 832 80 L 848 80 L 864 80 M 848 80 L 864 80 L 880 80 M 864 80 L 880 80 L 896 80 M 880 80 L 896 80 L 912 80 M 896 80 L 912 80 M 920 80 L 920 64 M 920 80 L 912 80 M 920 80 L 928 80 L 944 80 M 928 80 L 944 80 M 952 88 A 8 8 0 0 0 944 80 M 952 88 L 952 96 M 40 96 L 40 128 M 40 96 L 40 128 M 152 96 L 152 128 M 152 96 L 152 128 M 264 112 L 264 96 M 264 112 L 272 112 L 288 112 M 272 112 L 288 112 L 304 112 M 288 112 L 304 112 L 320 112 M 304 112 L 320 112 L 336 112 M 320 112 L 336 112 L 352 112 M 336 112 L 352 112 L 368 112 M 352 112 L 368 112 L 384 112 M 368 112 L 384 112 L 400 112 M 384 112 L 400 112 L 416 112 M 400 112 L 416 112 L 432 112 M 416 112 L 432 112 L 448 112 M 432 112 L 448 112 L 464 112 M 448 112 L 464 112 L 480 112 M 464 112 L 480 112 L 496 112 M 480 112 L 496 112 L 512 112 M 496 112 L 512 112 L 528 112 M 512 112 L 528 112 L 544 112 M 528 112 L 544 112 L 560 112 M 544 112 L 560 112 L 576 112 M 560 112 L 576 112 L 592 112 M 576 112 L 592 112 L 608 112 M 592 112 L 608 112 M 616 112 L 616 96 M 616 112 L 608 112 M 760 104 L 760 96 M 760 104 A 8 8 0 0 0 768 112 L 784 112 M 768 112 L 784 112 M 792 112 L 792 96 M 792 112 L 784 112 M 792 112 L 792 128 M 952 96 L 952 128 M 952 96 L 952 128 M 40 136 L 40 128 M 40 136 A 8 8 0 0 0 48 144 L 64 144 M 48 144 L 64 144 L 80 144 M 64 144 L 80 144 L 96 144 M 80 144 L 96 144 L 112 144 M 96 144 L 112 144 L 128 144 M 112 144 L 128 144 L 144 144 M 128 144 L 144 144 M 152 136 L 152 128 M 144 144 A 8 8 0 0 0 152 136 M 792 136 L 792 128 M 792 136 A 8 8 0 0 0 800 144 L 816 144 M 800 144 L 816 144 L 832 144 M 816 144 L 832 144 L 848 144 M 832 144 L 848 144 L 864 144 M 848 144 L 864 144 L 880 144 M 864 144 L 880 144 L 896 144 M 880 144 L 896 144 L 912 144 M 896 144 L 912 144 L 928 144 M 912 144 L 928 144 L 944 144 M 928 144 L 944 144 M 952 136 L 952 128 M 944 144 A 8 8 0 0 0 952 136" fill="none"/>
<path d="" fill="none" stroke-dasharray="3 3"/>
<line marker-end="url(#triangle)" x1="224" x2="248" y1="80" y2="80"/>
<line marker-end="url(#triangle)" x1="224" x2="248" y1="80" y2="80"/>
<line marker-end="url(#triangle)" x1="240" x2="248" y1="80" y2="80"/>
<line marker-end="url(#triangle)" x1="688" x2="712" y1="80" y2="80"/>
<line marker-end="url(#triangle)" x1="688" x2="712" y1="80" y2="80"/>
<line marker-end="url(#triangle)" x1="704" x2="712" y1="80" y2="80"/>
<text x="66" y="56">
rss
</text>
<text x="66" y="88">
feed
</text>
<text x="290" y="88">
parseUrl(url: string)
</text>
<text x="66" y="120">
url
</text>
<text x="818" y="120">
article
</text>
</svg>
